# xmcd
#
# Track frame offsets: 
#        150
#        21109
#        42324
#        65454
#        84258
#        102024
#        125996
#        141403
#        163332
#        181403
#        193775
#
# Disc length: 2801 seconds
#
# Revision: 1
# Processed by: cddbd v1.5.2PL0 Copyright (c) Steve Scherf et al.
# Submitted via: ExactAudioCopy v0.99pb5
#
DISCID=9d0aef0b
DTITLE=Sonny Landreth - From The Reach
DYEAR=2008
DGENRE=Blues
TTITLE0=Blue Tarp Blues (f.Mark Knopfler)
TTITLE1=When I Still Had You (f.Eric Clapton)
TTITLE2=Way Past Long (f.Robben Ford)
TTITLE3=The Milky Way Home (f.Eric Johnson)
TTITLE4=Storm Of Worry (f.Eric Clapton)
TTITLE5=Howlin' Moon (f.Dr.John and Jimmy Buffett)
TTITLE6=The Goin' On (f.Vince Gill)
TTITLE7=Let It Fly (f.Nadirah Shakoor)
TTITLE8=Blue Angel (f.Robben Ford and Vince Gill)
TTITLE9=Überesso
TTITLE10=Universe (f.Vince Gill)
EXTD=YEAR: 2008
EXTT0=
EXTT1=
EXTT2=
EXTT3=
EXTT4=
EXTT5=
EXTT6=
EXTT7=
EXTT8=
EXTT9=
EXTT10=
PLAYORDER=
